<svg width="487" height="130" viewBox="0 0 487 130" fill="none" xmlns="http://www.w3.org/2000/svg">
<path d="M243.5 0L316.679 97.3587H170.321L243.5 0Z" fill="#B7D1E2"/>
<path d="M10.2078 32H17.1078V83H10.2078V32ZM51.34 41.6C55.74 41.6 58.765 42.775 60.415 45.125C62.115 47.425 62.965 50.75 62.965 55.1V83H56.29V55.7C56.29 52.55 55.79 50.3 54.79 48.95C53.79 47.6 52.065 46.925 49.615 46.925C47.765 46.925 45.89 47.35 43.99 48.2C42.09 49.05 40.015 50.35 37.765 52.1V83H31.09V42.95H36.265L37.24 47.15C42.09 43.45 46.79 41.6 51.34 41.6ZM97.7199 81.5C95.1199 83.15 92.3199 83.975 89.3199 83.975C85.0199 83.975 81.8449 82.825 79.7949 80.525C77.7449 78.175 76.7199 74.825 76.7199 70.475V47.975H70.3449V45.125L77.3199 43.175L79.3449 33.5H83.3949V42.95H95.3949V47.975H83.3949V69.425C83.3949 72.675 83.9199 75.05 84.9699 76.55C86.0199 78 87.7199 78.725 90.0699 78.725C91.2199 78.675 92.2699 78.5 93.2199 78.2C94.2199 77.9 95.3199 77.425 96.5199 76.775L97.7199 81.5ZM121.55 79.175C124.05 79.175 126.3 78.625 128.3 77.525C130.3 76.425 132.225 74.925 134.075 73.025L136.625 77.225C134.625 79.475 132.375 81.225 129.875 82.475C127.425 83.725 124.625 84.35 121.475 84.35C117.275 84.35 113.725 83.4 110.825 81.5C107.975 79.55 105.825 76.975 104.375 73.775C102.975 70.525 102.275 66.95 102.275 63.05C102.275 59.05 102.975 55.425 104.375 52.175C105.825 48.925 108 46.35 110.9 44.45C113.8 42.55 117.325 41.6 121.475 41.6C124.375 41.6 126.975 42.2 129.275 43.4C131.625 44.55 133.45 46.25 134.75 48.5C136.05 50.75 136.7 53.4 136.7 56.45C136.7 57.6 136.525 59.1 136.175 60.95H109.1C109.05 61.4 109.025 62.05 109.025 62.9C109.025 67.85 110.075 71.8 112.175 74.75C114.325 77.7 117.45 79.175 121.55 79.175ZM121.25 46.55C118.3 46.55 115.85 47.4 113.9 49.1C112 50.8 110.65 53.125 109.85 56.075H130.1V55.475C130.1 52.575 129.225 50.375 127.475 48.875C125.775 47.325 123.7 46.55 121.25 46.55ZM166.825 47.9C164.425 47.9 162.125 48.325 159.925 49.175C157.775 49.975 155.35 51.475 152.65 53.675V83H145.975V42.95H151.15L152.35 48.35C154.8 45.9 157.175 44.175 159.475 43.175C161.825 42.175 164.275 41.675 166.825 41.675V47.9ZM206.152 42.95L190.477 83.6H184.402L168.727 42.95H175.627L187.477 75.575L199.327 42.95H206.152ZM246.071 82.925C244.271 83.575 242.471 83.925 240.671 83.975C238.671 83.975 237.021 83.575 235.721 82.775C234.471 81.975 233.696 80.575 233.396 78.575C228.646 82.225 224.246 84.05 220.196 84.05C217.046 84.05 214.471 83.15 212.471 81.35C210.471 79.5 209.471 77.2 209.471 74.45C209.471 71.9 210.171 69.8 211.571 68.15C212.971 66.45 214.921 65.05 217.421 63.95C219.971 62.85 223.396 61.675 227.696 60.425L233.246 58.85V55.925C233.246 49.925 230.971 46.925 226.421 46.925C223.921 46.925 221.621 47.45 219.521 48.5C217.421 49.5 215.046 51.4 212.396 54.2L209.621 50C215.221 44.4 221.246 41.6 227.696 41.6C231.996 41.6 235.096 42.725 236.996 44.975C238.946 47.225 239.921 50.975 239.921 56.225V75.8C239.921 76.9 240.121 77.7 240.521 78.2C240.921 78.65 241.546 78.875 242.396 78.875C243.146 78.875 244.221 78.625 245.621 78.125L246.071 82.925ZM216.146 73.925C216.146 75.625 216.646 76.875 217.646 77.675C218.646 78.475 219.971 78.875 221.621 78.875C223.321 78.875 225.071 78.45 226.871 77.6C228.721 76.75 230.846 75.45 233.246 73.7V63.275L228.971 64.55C224.221 66 220.896 67.4 218.996 68.75C217.096 70.1 216.146 71.825 216.146 73.925ZM253.023 23H259.698V83H253.023V23ZM326.397 37.25H309.222V83H302.322V37.25H285.147V32H326.397V37.25ZM338.259 30.575C337.109 30.575 336.109 30.175 335.259 29.375C334.409 28.525 333.984 27.525 333.984 26.375C333.984 25.175 334.409 24.15 335.259 23.3C336.109 22.45 337.109 22.025 338.259 22.025C339.459 22.025 340.484 22.45 341.334 23.3C342.184 24.15 342.609 25.175 342.609 26.375C342.609 27.525 342.184 28.525 341.334 29.375C340.484 30.175 339.459 30.575 338.259 30.575ZM334.959 42.95H341.634V83H334.959V42.95ZM398.562 41.6C402.812 41.6 405.712 42.75 407.262 45.05C408.862 47.35 409.662 50.7 409.662 55.1V83H402.987V55.7C402.987 52.55 402.512 50.3 401.562 48.95C400.662 47.6 399.087 46.925 396.837 46.925C395.087 46.925 393.312 47.375 391.512 48.275C389.712 49.125 387.687 50.425 385.437 52.175C385.537 52.775 385.587 53.75 385.587 55.1V83H378.912V55.7C378.912 52.55 378.437 50.3 377.487 48.95C376.587 47.6 375.012 46.925 372.762 46.925C371.062 46.925 369.312 47.35 367.512 48.2C365.712 49.05 363.687 50.35 361.437 52.1V83H354.762V42.95H359.937L360.912 47.15C365.712 43.45 370.237 41.6 374.487 41.6C377.237 41.6 379.412 42.1 381.012 43.1C382.612 44.1 383.787 45.55 384.537 47.45C389.537 43.55 394.212 41.6 398.562 41.6ZM437.64 79.175C440.14 79.175 442.39 78.625 444.39 77.525C446.39 76.425 448.315 74.925 450.165 73.025L452.715 77.225C450.715 79.475 448.465 81.225 445.965 82.475C443.515 83.725 440.715 84.35 437.565 84.35C433.365 84.35 429.815 83.4 426.915 81.5C424.065 79.55 421.915 76.975 420.465 73.775C419.065 70.525 418.365 66.95 418.365 63.05C418.365 59.05 419.065 55.425 420.465 52.175C421.915 48.925 424.09 46.35 426.99 44.45C429.89 42.55 433.415 41.6 437.565 41.6C440.465 41.6 443.065 42.2 445.365 43.4C447.715 44.55 449.54 46.25 450.84 48.5C452.14 50.75 452.79 53.4 452.79 56.45C452.79 57.6 452.615 59.1 452.265 60.95H425.19C425.14 61.4 425.115 62.05 425.115 62.9C425.115 67.85 426.165 71.8 428.265 74.75C430.415 77.7 433.54 79.175 437.64 79.175ZM437.34 46.55C434.39 46.55 431.94 47.4 429.99 49.1C428.09 50.8 426.74 53.125 425.94 56.075H446.19V55.475C446.19 52.575 445.315 50.375 443.565 48.875C441.865 47.325 439.79 46.55 437.34 46.55ZM482.915 47.9C480.515 47.9 478.215 48.325 476.015 49.175C473.865 49.975 471.44 51.475 468.74 53.675V83H462.065V42.95H467.24L468.44 48.35C470.89 45.9 473.265 44.175 475.565 43.175C477.915 42.175 480.365 41.675 482.915 41.675V47.9Z" fill="#6B7A99"/>
</svg>
