<svg width="177" height="48" viewBox="0 0 177 48" fill="none" xmlns="http://www.w3.org/2000/svg">
<path d="M73.8789 32.0703C73.8789 34.6484 72.9479 36.6797 71.0859 38.1641C69.237 39.6484 66.6589 40.3906 63.3516 40.3906C60.3047 40.3906 57.6094 39.8177 55.2656 38.6719V33.0469C57.1927 33.9062 58.8203 34.5117 60.1484 34.8633C61.4896 35.2148 62.7135 35.3906 63.8203 35.3906C65.1484 35.3906 66.1641 35.1367 66.8672 34.6289C67.5833 34.1211 67.9414 33.3659 67.9414 32.3633C67.9414 31.8034 67.7852 31.3086 67.4727 30.8789C67.1602 30.4362 66.6979 30.013 66.0859 29.6094C65.487 29.2057 64.2565 28.5612 62.3945 27.6758C60.6497 26.8555 59.3411 26.0677 58.4688 25.3125C57.5964 24.5573 56.8997 23.6784 56.3789 22.6758C55.8581 21.6732 55.5977 20.5013 55.5977 19.1602C55.5977 16.6341 56.4505 14.6484 58.1562 13.2031C59.875 11.7578 62.2448 11.0352 65.2656 11.0352C66.75 11.0352 68.1628 11.2109 69.5039 11.5625C70.8581 11.9141 72.2708 12.4089 73.7422 13.0469L71.7891 17.7539C70.2656 17.1289 69.0026 16.6927 68 16.4453C67.0104 16.1979 66.0339 16.0742 65.0703 16.0742C63.9245 16.0742 63.0456 16.3411 62.4336 16.875C61.8216 17.4089 61.5156 18.1055 61.5156 18.9648C61.5156 19.4987 61.6393 19.9674 61.8867 20.3711C62.1341 20.7617 62.5247 21.1458 63.0586 21.5234C63.6055 21.888 64.888 22.5521 66.9062 23.5156C69.5755 24.7917 71.4049 26.0742 72.3945 27.3633C73.3841 28.6393 73.8789 30.2083 73.8789 32.0703ZM87.7852 35.6445C88.8268 35.6445 90.0768 35.4167 91.5352 34.9609V39.3945C90.0508 40.0586 88.2279 40.3906 86.0664 40.3906C83.6836 40.3906 81.9453 39.7917 80.8516 38.5938C79.7708 37.3828 79.2305 35.5729 79.2305 33.1641V22.6367H76.3789V20.1172L79.6602 18.125L81.3789 13.5156H85.1875V18.1641H91.3008V22.6367H85.1875V33.1641C85.1875 34.0104 85.4219 34.6354 85.8906 35.0391C86.3724 35.4427 87.0039 35.6445 87.7852 35.6445ZM109.836 40L108.684 37.0312H108.527C107.525 38.2943 106.49 39.1732 105.422 39.668C104.367 40.1497 102.987 40.3906 101.281 40.3906C99.1849 40.3906 97.5312 39.7917 96.3203 38.5938C95.1224 37.3958 94.5234 35.6901 94.5234 33.4766C94.5234 31.1589 95.3307 29.4531 96.9453 28.3594C98.5729 27.2526 101.021 26.6406 104.289 26.5234L108.078 26.4062V25.4492C108.078 23.2357 106.945 22.1289 104.68 22.1289C102.935 22.1289 100.884 22.6562 98.5273 23.7109L96.5547 19.6875C99.0677 18.3724 101.854 17.7148 104.914 17.7148C107.844 17.7148 110.09 18.3529 111.652 19.6289C113.215 20.9049 113.996 22.8451 113.996 25.4492V40H109.836ZM108.078 29.8828L105.773 29.9609C104.042 30.013 102.753 30.3255 101.906 30.8984C101.06 31.4714 100.637 32.3438 100.637 33.5156C100.637 35.1953 101.6 36.0352 103.527 36.0352C104.908 36.0352 106.008 35.638 106.828 34.8438C107.661 34.0495 108.078 32.9948 108.078 31.6797V29.8828ZM132.336 17.7539C133.143 17.7539 133.814 17.8125 134.348 17.9297L133.898 23.5156C133.417 23.3854 132.831 23.3203 132.141 23.3203C130.24 23.3203 128.755 23.8086 127.688 24.7852C126.633 25.7617 126.105 27.1289 126.105 28.8867V40H120.148V18.1641H124.66L125.539 21.8359H125.832C126.509 20.612 127.421 19.6289 128.566 18.8867C129.725 18.1315 130.982 17.7539 132.336 17.7539ZM147.512 35.6445C148.553 35.6445 149.803 35.4167 151.262 34.9609V39.3945C149.777 40.0586 147.954 40.3906 145.793 40.3906C143.41 40.3906 141.672 39.7917 140.578 38.5938C139.497 37.3828 138.957 35.5729 138.957 33.1641V22.6367H136.105V20.1172L139.387 18.125L141.105 13.5156H144.914V18.1641H151.027V22.6367H144.914V33.1641C144.914 34.0104 145.148 34.6354 145.617 35.0391C146.099 35.4427 146.73 35.6445 147.512 35.6445Z" fill="#6B7A99"/>
<path fill-rule="evenodd" clip-rule="evenodd" d="M29.4274 23.9721L0 7V40.9442L29.4274 23.9721Z" fill="#6B7A99"/>
</svg>
